<svg width="18" height="17" viewBox="0 0 18 17" fill="none" xmlns="http://www.w3.org/2000/svg">
<path fill-rule="evenodd" clip-rule="evenodd" d="M0 13.175C0 15.2875 1.7269 17 3.85715 17H8.57144C10.465 17 12 15.4778 12 13.6V12.75C12 12.2806 11.6163 11.9 11.1429 11.9C10.6695 11.9 10.2857 12.2806 10.2857 12.75V13.6C10.2857 14.5389 9.51824 15.3 8.57144 15.3H3.85715C2.67368 15.3 1.71429 14.3486 1.71429 13.175V3.825C1.71429 2.6514 2.67368 1.7 3.85715 1.7H8.57144C9.51824 1.7 10.2857 2.46109 10.2857 3.4V4.25C10.2857 4.71945 10.6695 5.1 11.1429 5.1C11.6163 5.1 12 4.71945 12 4.25V3.4C12 1.52226 10.465 -4.76837e-07 8.57144 -4.76837e-07H3.85715C1.7269 -4.76837e-07 0 1.71249 0 3.825V13.175ZM13.9654 11.651C14.3001 11.983 14.8428 11.983 15.1775 11.651L17.749 9.10103C18.0837 8.76911 18.0837 8.23089 17.749 7.89896L15.1775 5.34896C14.8428 5.01704 14.3001 5.01704 13.9654 5.34896C13.6306 5.68089 13.6306 6.21911 13.9654 6.55103L15.0736 7.65H7.71429C7.24089 7.65 6.85715 8.03054 6.85715 8.5C6.85715 8.96945 7.24089 9.35 7.71429 9.35H15.0736L13.9654 10.449C13.6306 10.7809 13.6306 11.3191 13.9654 11.651Z" fill="black"/>
</svg>
