<svg width="16" height="12" viewBox="0 0 16 12" fill="none" xmlns="http://www.w3.org/2000/svg">
<path d="M11.2216 7.20001C10.1356 7.20001 9.26682 7.52001 8.61523 7.92001C9.62881 8.88001 10.0632 10 10.1356 10.08L10.208 10.24V12H15.9999V10.4C15.9275 10.4 14.7691 7.20001 11.2216 7.20001Z" fill="#FBA819"/>
<path d="M11.2214 5.6C12.6209 5.6 13.7554 4.3464 13.7554 2.8C13.7554 1.2536 12.6209 0 11.2214 0C9.82198 0 8.6875 1.2536 8.6875 2.8C8.6875 4.3464 9.82198 5.6 11.2214 5.6Z" fill="#FBA819"/>
<path d="M2.17195 2.8C2.17195 1.28 3.33032 0 4.70588 0C6.08145 0 7.23982 1.28 7.23982 2.8C7.23982 4.32 6.08145 5.6 4.70588 5.6C3.33032 5.6 2.17195 4.32 2.17195 2.8ZM4.70588 7.2C1.15837 7.2 0 10.4 0 10.4V12H9.41177V10.4C9.41177 10.4 8.25339 7.2 4.70588 7.2Z" fill="#FBA819"/>
</svg>
