<svg width="12" height="12" viewBox="0 0 12 12" fill="none" xmlns="http://www.w3.org/2000/svg">
<path d="M11.6667 6.75H10V9L9.33333 8.50078L8.66667 9V6.75H7C6.81667 6.75 6.66667 6.91875 6.66667 7.125V11.625C6.66667 11.8313 6.81667 12 7 12H11.6667C11.85 12 12 11.8313 12 11.625V7.125C12 6.91875 11.85 6.75 11.6667 6.75ZM3.66667 5.25H8.33333C8.51667 5.25 8.66667 5.08125 8.66667 4.875V0.375C8.66667 0.16875 8.51667 0 8.33333 0H6.66667V2.25L6 1.75078L5.33333 2.25V0H3.66667C3.48333 0 3.33333 0.16875 3.33333 0.375V4.875C3.33333 5.08125 3.48333 5.25 3.66667 5.25ZM5 6.75H3.33333V9L2.66667 8.50078L2 9V6.75H0.333333C0.15 6.75 0 6.91875 0 7.125V11.625C0 11.8313 0.15 12 0.333333 12H5C5.18333 12 5.33333 11.8313 5.33333 11.625V7.125C5.33333 6.91875 5.18333 6.75 5 6.75Z" fill="#FBA819"/>
</svg>
