<svg width="19" height="23" viewBox="0 0 19 23" fill="none" xmlns="http://www.w3.org/2000/svg">
<path d="M9.81796 16.9215C10.2204 16.9215 10.5466 16.6352 10.5466 16.2824V13.6346C10.5466 13.2816 10.2204 12.9955 9.81796 12.9955C9.41571 12.9955 9.08936 13.2816 9.08936 13.6346V16.2824C9.08936 16.6352 9.41571 16.9215 9.81796 16.9215Z" fill="black"/>
<path fill-rule="evenodd" clip-rule="evenodd" d="M18.1683 7.55541H14.72V4.4418C14.72 2.29277 12.5209 0.544556 9.81783 0.544556C7.11498 0.544556 4.9159 2.29277 4.9159 4.4418V7.55541H1.46737C1.06493 7.55541 0.73877 7.8417 0.73877 8.19457V16.3687C0.73877 19.6731 3.80326 22.3614 7.56998 22.3614H12.0659C15.8326 22.3614 18.8971 19.6731 18.8971 16.3687V8.19457C18.8969 7.8417 18.5707 7.55541 18.1683 7.55541ZM6.3731 4.4418C6.3731 2.99769 7.91834 1.82289 9.81783 1.82289C11.7173 1.82289 13.2628 2.99769 13.2628 4.4418V7.55541H6.3731V4.4418ZM12.0657 21.0831C15.029 21.0831 17.4397 18.9682 17.4397 16.3687V8.83374H2.19597V16.3687C2.19597 18.9682 4.60681 21.0831 7.56998 21.0831H12.0657Z" fill="black"/>
</svg>
