<svg width="25" height="25" viewBox="0 0 25 25" fill="none" xmlns="http://www.w3.org/2000/svg">
<path d="M12.8691 16.049C10.8891 16.049 9.28906 14.449 9.28906 12.469C9.28906 10.489 10.8891 8.88904 12.8691 8.88904C14.8491 8.88904 16.4491 10.489 16.4491 12.469C16.4491 14.449 14.8491 16.049 12.8691 16.049Z" stroke="#292D32" stroke-width="1.5" stroke-linecap="round" stroke-linejoin="round"/>
<path d="M21.979 15.059C22.879 13.649 22.879 11.279 21.979 9.86896C19.689 6.26896 16.399 4.18896 12.869 4.18896C9.33898 4.18896 6.04898 6.26896 3.75898 9.86896C2.85898 11.279 2.85898 13.649 3.75898 15.059C6.04898 18.659 9.33898 20.739 12.869 20.739C16.399 20.739 19.689 18.659 21.979 15.059Z" stroke="#292D32" stroke-width="1.5" stroke-linecap="round" stroke-linejoin="round"/>
</svg>
