<svg width="65" height="58" viewBox="0 0 65 58" fill="none" xmlns="http://www.w3.org/2000/svg">
<path d="M36.4146 34.2405C44.2846 34.2405 50.6646 26.5845 50.6646 17.1405C50.6646 7.6964 44.2846 0.0404663 36.4146 0.0404663C28.5445 0.0404663 22.1646 7.6964 22.1646 17.1405C22.1646 26.5845 28.5445 34.2405 36.4146 34.2405Z" fill="#2ED048"/>
<path d="M64.3445 48.7755C61.7795 43.6455 56.9345 39.3705 50.6645 36.8055C48.9545 36.2355 46.9595 36.2355 45.5345 37.0905C42.6845 38.8005 39.8345 39.6555 36.4145 39.6555C32.9945 39.6555 30.1445 38.8005 27.2945 37.0905C25.8695 36.5205 23.8745 36.2355 22.1645 37.0905C15.8945 39.6555 11.0495 43.9305 8.48453 49.0605C6.48953 52.7655 9.62453 57.0405 13.8995 57.0405H58.9295C63.2045 57.0405 66.3395 52.7655 64.3445 48.7755Z" fill="#2ED048"/>
<circle cx="11.274" cy="38.8338" r="9.3905" fill="#2ED048" stroke="#262626" stroke-width="3"/>
</svg>
