<svg width="65" height="59" viewBox="0 0 65 59" fill="none" xmlns="http://www.w3.org/2000/svg">
<path d="M36.4146 34.5083C44.2846 34.5083 50.6646 26.8524 50.6646 17.4083C50.6646 7.96422 44.2846 0.308289 36.4146 0.308289C28.5445 0.308289 22.1646 7.96422 22.1646 17.4083C22.1646 26.8524 28.5445 34.5083 36.4146 34.5083Z" fill="#DF2C2C"/>
<path d="M64.3445 49.9831C61.7795 44.8531 56.9345 40.5781 50.6645 38.0131C48.9545 37.4431 46.9595 37.4431 45.5345 38.2981C42.6845 40.0081 39.8345 40.8631 36.4145 40.8631C32.9945 40.8631 30.1445 40.0081 27.2945 38.2981C25.8695 37.7281 23.8745 37.4431 22.1645 38.2981C15.8945 40.8631 11.0495 45.1381 8.48453 50.2681C6.48953 53.9731 9.62453 58.2481 13.8995 58.2481H58.9295C63.2045 58.2481 66.3395 53.9731 64.3445 49.9831Z" fill="#DF2C2C"/>
<circle cx="11.274" cy="39.1017" r="9.3905" fill="#DF2C2C" stroke="#262626" stroke-width="3"/>
</svg>
