<svg width="68" height="58" viewBox="0 0 68 58" fill="none" xmlns="http://www.w3.org/2000/svg">
<path d="M13.8153 15.6766C13.8153 19.8036 15.4547 23.7616 18.373 26.6798C21.2912 29.598 25.2491 31.2374 29.3761 31.2374C33.5031 31.2374 37.461 29.598 40.3792 26.6798C43.2974 23.7616 44.9369 19.8036 44.9369 15.6766C44.9369 11.5497 43.2974 7.59171 40.3792 4.6735C37.461 1.75528 33.5031 0.115845 29.3761 0.115845C25.2491 0.115845 21.2912 1.75528 18.373 4.6735C15.4547 7.59171 13.8153 11.5497 13.8153 15.6766ZM41.6224 45.5618C41.6224 40.6977 43.996 36.3887 47.6473 33.7275C47.6499 33.7256 47.65 33.7218 47.6475 33.7199C45.7481 32.2056 43.6572 30.9215 41.416 29.9114C41.4143 29.9106 41.4123 29.9109 41.4109 29.9121C38.1633 32.6603 33.9637 34.3185 29.3761 34.3185C24.7885 34.3185 20.5889 32.6604 17.3413 29.9121C17.3399 29.9109 17.3379 29.9106 17.3362 29.9114C7.97811 34.129 1.23015 43.1118 0.184354 53.768C0.184046 53.7709 0.186357 53.7733 0.189207 53.7733H44.1329C44.1368 53.7733 44.1391 53.7691 44.1369 53.7659C42.5499 51.4258 41.6224 48.6023 41.6224 45.5618ZM56.2576 34.0077C49.8764 34.0077 44.7035 39.1806 44.7035 45.5618C44.7035 51.9429 49.8764 57.1158 56.2576 57.1158C62.6387 57.1158 67.8116 51.9429 67.8116 45.5618C67.8116 39.1806 62.6387 34.0077 56.2576 34.0077ZM62.2224 47.2564H57.957C57.9543 47.2564 57.9522 47.2585 57.9522 47.2612V51.5266C57.9522 52.4077 57.2972 53.174 56.42 53.2569C55.4158 53.3518 54.563 52.5556 54.563 51.57V47.2613C54.563 47.2586 54.5608 47.2565 54.5581 47.2565H50.2928C49.4117 47.2565 48.6454 46.6015 48.5625 45.7243C48.4677 44.7201 49.2638 43.8673 50.2494 43.8673H54.5581C54.5608 43.8673 54.563 43.8651 54.563 43.8624V39.597C54.563 38.7159 55.2179 37.9496 56.0951 37.8668C57.0993 37.7719 57.9522 38.568 57.9522 39.5537V43.8623C57.9522 43.865 57.9543 43.8672 57.957 43.8672H62.2657C63.2513 43.8672 64.0475 44.72 63.9526 45.7242C63.8697 46.6014 63.1034 47.2564 62.2224 47.2564Z" fill="#19EDFB"/>
</svg>
