<svg width="49" height="58" viewBox="0 0 49 58" fill="none" xmlns="http://www.w3.org/2000/svg">
<path d="M40.8307 32.4148C34.7636 30.8232 29.5775 32.2199 25.5973 36.9607C21.6333 41.6826 21.2571 47.0364 23.708 52.6853C23.4523 52.6975 23.2371 52.7165 23.0232 52.7165C17.553 52.7178 12.0841 52.7205 6.6138 52.7165C2.87313 52.7151 0.45874 50.2912 0.45874 46.5438C0.45874 33.0847 0.45874 19.6269 0.45874 6.16779C0.45874 2.47448 2.88937 0.0438497 6.5908 0.0424963C15.9547 0.0397896 25.3185 0.0397896 34.6824 0.0424963C38.3825 0.0424963 40.8293 2.4826 40.8293 6.16643C40.8293 14.652 40.8293 23.1362 40.8293 31.6217C40.8293 31.868 40.8293 32.1143 40.8293 32.4148H40.8307ZM26.3931 10.9898C25.9397 10.9898 25.6934 10.9898 25.4485 10.9898C20.9039 10.9898 16.3593 10.9884 11.8148 10.9939C11.5035 10.9939 11.1787 11.0074 10.885 11.094C10.211 11.2929 9.84426 11.8952 9.91193 12.6016C9.97419 13.2553 10.4533 13.7561 11.1286 13.844C11.3952 13.8792 11.6672 13.8738 11.9366 13.8738C16.4581 13.8751 20.981 13.8738 25.5026 13.8738C25.7408 13.8738 25.979 13.8738 26.3714 13.8738C26.1075 14.158 25.9641 14.3231 25.8098 14.4774C24.8733 15.418 23.9259 16.3491 22.9975 17.2964C22.3412 17.965 22.3073 18.7838 22.8811 19.4009C23.4699 20.0329 24.3712 20.0654 25.0452 19.4158C27.0048 17.5265 28.9536 15.625 30.8876 13.71C31.5805 13.0252 31.5683 12.2105 30.9052 11.4946C30.4613 11.0169 29.9957 10.5594 29.5397 10.0925C28.0469 8.56322 26.5528 7.03529 25.06 5.50599C24.6283 5.0648 24.11 4.9051 23.5213 5.09322C22.9569 5.27457 22.5374 5.70223 22.5699 6.27064C22.5969 6.73755 22.8175 7.27889 23.1302 7.62806C24.1289 8.74322 25.2116 9.78395 26.3931 10.9871V10.9898ZM20.5818 29.233C25.2211 29.233 29.859 29.233 34.4983 29.233C35.8246 29.233 36.5189 28.7269 36.4973 27.7768C36.4756 26.8484 35.8016 26.3693 34.5119 26.3693C25.2576 26.3693 16.002 26.3693 6.74779 26.3693C6.50012 26.3693 6.24975 26.3558 6.00615 26.391C5.28616 26.4952 4.76106 27.1434 4.79219 27.8648C4.82196 28.5672 5.35518 29.1437 6.06028 29.2181C6.28358 29.2412 6.50959 29.2317 6.73561 29.2317C11.3519 29.2317 15.9682 29.2317 20.5845 29.2317L20.5818 29.233ZM12.6958 36.5276C14.7867 36.5276 16.8777 36.5303 18.9686 36.5236C19.2338 36.5236 19.5153 36.51 19.7617 36.4248C20.3842 36.2055 20.7144 35.5735 20.5994 34.9077C20.4816 34.231 19.9349 33.7911 19.1323 33.7898C14.8828 33.7817 10.6346 33.783 6.38509 33.7884C5.42014 33.7884 4.80301 34.3311 4.79083 35.1499C4.77865 35.9998 5.39443 36.5249 6.42433 36.5276C8.51527 36.5317 10.6062 36.529 12.6971 36.529L12.6958 36.5276Z" fill="#A8A8A8"/>
<path d="M48.0224 45.5748C48.0008 51.9085 42.812 57.054 36.4593 57.0404C30.127 57.0269 24.9491 51.8341 24.9558 45.5044C24.9612 39.1369 30.1635 33.9522 36.5297 33.9671C42.8946 33.982 48.0454 39.1843 48.0238 45.5748H48.0224ZM32.7728 45.1539C32.5306 45.3637 32.337 45.5193 32.1584 45.6885C30.6507 47.1082 29.8942 48.854 29.9294 50.9246C29.9429 51.7339 30.5222 52.3078 31.2733 52.3429C32.0758 52.3808 32.6767 51.8571 32.7809 51.0248C32.8093 50.8015 32.8175 50.5755 32.8472 50.3535C33.076 48.5996 34.3048 47.2868 36.0303 46.9539C36.5351 46.8564 37.0413 46.7725 37.5434 46.6629C39.8698 46.1581 41.5141 44.1037 41.4803 41.7543C41.4465 39.3548 39.7155 37.3058 37.385 36.9052C34.9693 36.4911 32.6496 37.7849 31.8268 40.0626C31.161 41.9059 31.5277 43.6003 32.7742 45.1553L32.7728 45.1539ZM43.6917 50.5795C43.6118 49.0949 43.0407 47.6617 41.9702 46.4382C41.4383 45.8306 40.5735 45.7683 39.9767 46.2555C39.3826 46.74 39.2608 47.5994 39.7629 48.245C40.376 49.034 40.7129 49.8934 40.7657 50.8976C40.8158 51.8436 41.4789 52.3971 42.3613 52.3416C43.1923 52.2888 43.7079 51.6609 43.693 50.5782L43.6917 50.5795Z" fill="#A8A8A8"/>
</svg>
