<svg width="90" height="53" viewBox="0 0 90 53" fill="none" xmlns="http://www.w3.org/2000/svg">
<path d="M32.4128 12.1548C32.4128 5.26706 37.6799 0 44.5676 0C51.4553 0 56.7223 5.26706 56.7223 12.1548C56.7223 19.0424 51.4553 24.3095 44.5676 24.3095C37.6799 24.3095 32.4128 19.0424 32.4128 12.1548ZM44.5676 32.4127C25.9303 32.4127 20.2581 45.7829 20.2581 45.7829V52.6706H68.8771V45.7829C68.8771 45.7829 63.2049 32.4127 44.5676 32.4127Z" fill="#2ED048"/>
<path d="M70.9029 20.2579C76.497 20.2579 81.0319 15.723 81.0319 10.129C81.0319 4.53489 76.497 0 70.9029 0C65.3088 0 60.7739 4.53489 60.7739 10.129C60.7739 15.723 65.3088 20.2579 70.9029 20.2579Z" fill="#2ED048"/>
<path d="M70.9028 28.3611C66.0409 28.3611 62.3945 29.5766 59.5583 31.6024C68.877 36.0591 72.5234 43.7571 72.5234 44.5674V44.9726H89.1349V39.7055C89.1349 39.3004 84.6782 28.3611 70.9028 28.3611Z" fill="#2ED048"/>
<path d="M18.2322 20.2579C23.8263 20.2579 28.3612 15.723 28.3612 10.129C28.3612 4.53489 23.8263 0 18.2322 0C12.6382 0 8.10327 4.53489 8.10327 10.129C8.10327 15.723 12.6382 20.2579 18.2322 20.2579Z" fill="#2ED048"/>
<path d="M18.2321 28.3611C23.094 28.3611 26.7405 29.5766 29.5766 31.6024C20.2579 36.0591 16.6115 43.7571 16.6115 44.5674V44.9726H0V39.7055C0 39.3004 4.45674 28.3611 18.2321 28.3611Z" fill="#2ED048"/>
</svg>
