<svg width="90" height="53" viewBox="0 0 90 53" fill="none" xmlns="http://www.w3.org/2000/svg">
<path d="M32.4621 12.3599C32.4621 5.4722 37.7292 0.205139 44.6169 0.205139C51.5046 0.205139 56.7716 5.4722 56.7716 12.3599C56.7716 19.2476 51.5046 24.5147 44.6169 24.5147C37.7292 24.5147 32.4621 19.2476 32.4621 12.3599ZM44.6169 32.6178C25.9796 32.6178 20.3074 45.988 20.3074 45.988V52.8757H68.9264V45.988C68.9264 45.988 63.2542 32.6178 44.6169 32.6178Z" fill="#FBA819"/>
<path d="M70.9522 20.4631C76.5463 20.4631 81.0812 15.9282 81.0812 10.3341C81.0812 4.74003 76.5463 0.205139 70.9522 0.205139C65.3581 0.205139 60.8232 4.74003 60.8232 10.3341C60.8232 15.9282 65.3581 20.4631 70.9522 20.4631Z" fill="#FBA819"/>
<path d="M70.9521 28.5662C66.0902 28.5662 62.4438 29.7817 59.6077 31.8075C68.9263 36.2643 72.5727 43.9623 72.5727 44.7726V45.1777H89.1842V39.9107C89.1842 39.5055 84.7275 28.5662 70.9521 28.5662Z" fill="#FBA819"/>
<path d="M18.2816 20.4631C23.8756 20.4631 28.4105 15.9282 28.4105 10.3341C28.4105 4.74003 23.8756 0.205139 18.2816 0.205139C12.6875 0.205139 8.15259 4.74003 8.15259 10.3341C8.15259 15.9282 12.6875 20.4631 18.2816 20.4631Z" fill="#FBA819"/>
<path d="M18.2814 28.5662C23.1433 28.5662 26.7898 29.7817 29.6259 31.8075C20.3072 36.2643 16.6608 43.9623 16.6608 44.7726V45.1777H0.0493164V39.9107C0.0493164 39.5055 4.50606 28.5662 18.2814 28.5662Z" fill="#FBA819"/>
</svg>
