<svg width="11" height="7" viewBox="0 0 11 7" fill="none" xmlns="http://www.w3.org/2000/svg">
<path d="M5.40479 6.9115C5.2852 6.9115 5.16951 6.8886 5.0577 6.8428C4.94529 6.79699 4.85172 6.73593 4.77698 6.65959L0.651422 2.44585C0.486997 2.27791 0.404785 2.06417 0.404785 1.80463C0.404785 1.54509 0.486997 1.33135 0.651422 1.16341C0.815846 0.995468 1.02511 0.911499 1.27922 0.911499C1.53334 0.911499 1.7426 0.995468 1.90703 1.16341L5.40479 4.73593L8.90254 1.16341C9.06697 0.995468 9.27624 0.911499 9.53035 0.911499C9.78446 0.911499 9.99372 0.995468 10.1581 1.16341C10.3226 1.33135 10.4048 1.54509 10.4048 1.80463C10.4048 2.06417 10.3226 2.27791 10.1581 2.44585L6.03259 6.65959C5.9429 6.75119 5.84574 6.81593 5.74111 6.85379C5.63647 6.89226 5.52437 6.9115 5.40479 6.9115Z" fill="black"/>
</svg>
