<svg width="9" height="6" viewBox="0 0 9 6" fill="none" xmlns="http://www.w3.org/2000/svg">
<path d="M4.66891 5.70684C4.57362 5.70684 4.48143 5.68859 4.39233 5.65209C4.30276 5.6156 4.22819 5.56693 4.16864 5.5061L0.881107 2.14831C0.750082 2.01448 0.68457 1.84416 0.68457 1.63734C0.68457 1.43051 0.750082 1.26019 0.881107 1.12637C1.01213 0.992541 1.17889 0.925629 1.38138 0.925629C1.58388 0.925629 1.75064 0.992541 1.88166 1.12637L4.66891 3.9732L7.45617 1.12637C7.58719 0.992541 7.75395 0.925629 7.95644 0.925629C8.15894 0.925629 8.32569 0.992541 8.45672 1.12637C8.58774 1.26019 8.65326 1.43051 8.65326 1.63734C8.65326 1.84416 8.58774 2.01448 8.45672 2.14831L5.16919 5.5061C5.09772 5.5791 5.0203 5.63068 4.93692 5.66085C4.85354 5.69151 4.7642 5.70684 4.66891 5.70684Z" fill="white"/>
</svg>
