<svg width="7" height="7" viewBox="0 0 7 7" fill="none" xmlns="http://www.w3.org/2000/svg">
<path d="M6.06733 4.11878L5.38278 3.72365C5.40451 3.60478 5.41928 3.48303 5.41928 3.358C5.41928 3.23258 5.40453 3.11041 5.38155 2.99154L6.06649 2.59598C6.38828 2.40949 6.49772 1.99916 6.31243 1.67903C6.12675 1.35767 5.71724 1.2474 5.39587 1.43227L4.70438 1.83153C4.51951 1.67413 4.30882 1.55033 4.07599 1.46753V0.671491C4.07599 0.300938 3.77593 6.10352e-05 3.40456 6.10352e-05C3.03359 6.10352e-05 2.73313 0.300938 2.73313 0.671491V1.46669C2.50031 1.54949 2.28962 1.67371 2.10433 1.83111L1.41488 1.43309C1.09351 1.2474 0.681957 1.35725 0.496693 1.67861C0.311429 1.99956 0.42169 2.4103 0.743055 2.59556L1.42637 2.99031C1.40423 3.10959 1.38948 3.23216 1.38948 3.358C1.38948 3.48303 1.40423 3.60476 1.42637 3.72404L0.742662 4.11878C0.420877 4.30405 0.310616 4.71561 0.496719 5.03697C0.68117 5.3571 1.09231 5.46736 1.41409 5.2821L2.10355 4.88408C2.288 5.04148 2.49952 5.16651 2.73316 5.24931V6.04451C2.73316 6.41548 3.03362 6.71594 3.40459 6.71594C3.77598 6.71594 4.07602 6.41548 4.07602 6.04451V5.24847C4.30966 5.16567 4.52076 5.04146 4.70482 4.88366L5.39593 5.2821C5.71729 5.46736 6.12762 5.3571 6.31249 5.03697C6.49856 4.71561 6.3887 4.30489 6.06733 4.11878ZM2.73316 3.358C2.73316 2.98745 3.03322 2.68657 3.40459 2.68657C3.77514 2.68657 4.07602 2.98745 4.07602 3.358C4.07602 3.72855 3.77514 4.02943 3.40459 4.02943C3.0332 4.02943 2.73316 3.72855 2.73316 3.358Z" fill="#4D4D4D"/>
</svg>
