<svg width="17" height="10" viewBox="0 0 17 10" fill="none" xmlns="http://www.w3.org/2000/svg">
<path d="M12.7191 1.09567L9.35572 8.34262C9.06098 9.08811 8.54087 9.52155 7.96874 9.52155C7.50064 9.52155 7.10188 9.27882 6.8765 8.89741C6.63378 8.44664 6.65111 7.89185 6.94585 7.42375L11.3495 0.36751C11.5749 0.0207659 12.0256 -0.100594 12.3897 0.0901146C12.7538 0.280824 12.8925 0.714253 12.7191 1.09567ZM13.8981 3.19347C13.638 2.91608 13.2046 2.89874 12.9098 3.1588C12.6324 3.41885 12.6151 3.85228 12.8752 4.14702C14.0194 5.39529 14.6609 7.02499 14.6609 8.74137C14.6609 9.12279 14.973 9.43486 15.3544 9.43486C15.7358 9.43486 16.0479 9.12279 16.0479 8.74137C16.0479 6.67825 15.285 4.70181 13.8981 3.19347ZM8.62755 2.04922C9.00897 2.08389 9.33838 1.8065 9.37305 1.42508C9.40773 1.04366 9.13033 0.714253 8.74891 0.679579C8.52353 0.662242 8.29815 0.644904 8.07276 0.644904C3.66912 0.644904 0.0976562 4.28571 0.0976562 8.75871C0.0976562 9.14013 0.409726 9.4522 0.791144 9.4522C1.17256 9.4522 1.48463 9.14013 1.48463 8.75871C1.48463 5.04855 4.43195 2.03188 8.07276 2.03188C8.26347 2.01454 8.45418 2.03188 8.62755 2.04922Z" fill="#4D4D4D"/>
</svg>
